<?xml version="1.0" encoding="UTF-8" standalone="no"?>
<svg xmlns:rdf="http://www.w3.org/1999/02/22-rdf-syntax-ns#" xmlns="http://www.w3.org/2000/svg" xml:space="preserve" height="121.23" viewBox="0 0 122.57687 121.22864" width="122.58" version="1.1" xmlns:cc="http://creativecommons.org/ns#" xmlns:dc="http://purl.org/dc/elements/1.1/"><g transform="matrix(1.25 0 0 -1.25 -60.288 180.84)"><g transform="matrix(.5 0 0 .5 48.936 48.397)"><path d="m183.61 95.521c0.566 3.717 4.672 9.585 7.127 12.417 0.728 0.843 1.457 1.686 2.187 2.532 0.002 0.003-1.209 2.592-1.209 2.592-2.039 4.331-4.023 10.44-3.744 12.753 0.008 0.04 0.014 0.075 0.022 0.12l1.14 7.701c0.983 6.758 1.022 12.436-1.22 16.204-0.971 1.63-2.25 6.5-10.301 7.669-3.211 0.466-7.494 0.736-15.479-0.348l-10.256-1.836c-3.912 9.802-9.359 17.983-16.089 23.998-6.752 6.036-14.752 9.88-23.725 11.061-8.719 1.148-17.552-0.329-26.051-3.896-8.293-3.48-16.318-8.97-23.672-16.02-10.978-10.52-21.117-25.33-28.125-41.88l-34.208-7.74c0.951-0.755 1.851-1.694 1.851-1.694 0.334-0.187 4.403-4.997 5.247-7.622 1.188-3.698 1.175-7.786 0.601-11.771l-4.529-31.531c-0.85-5.521 0.097-9.93 2.743-13.189 1.293-1.592 4.183-3.713 8.183-4.838 4.25-0.875 12.548-0.86 12.548-0.86 1.093-3.873 4.615-17.609 11.861-28.191 5.208-7.606 11.989-13.598 19.939-17.361 8.18-3.871 16.839-4.506 25.785-3.096 9.178 1.447 17.237 5.01 26.065 11.439 11.209 8.166 21.526 19.977 29.782 34.549l44.248-0.613c-2.969 11.728-4.969 20.035-3.77 28.355 1.531 10.631 3.055 21.104 3.055 21.104" fill="#98a4ae"/><path d="m59.137 10.499c7.601-3.505 15.767-4.451 24.049-3.07 8.481 1.414 17.048 5.262 25.183 11.25 16.734 12.322 31.302 33.404 39.093 59.85s6.979 52.059-0.402 71.485c-3.588 9.443-8.701 17.32-15.06 23.107-6.211 5.649-13.584 9.283-21.874 10.457-15.936 2.24-32.38-5.03-46.205-18.19-13.382-12.74-24.656-31.31-31.077-53.1-6.421-21.801-7.017-43.519-2.678-61.476 4.483-18.553 14.356-33.58 28.967-40.325" fill="#036"/><path d="m102.38 159.16" fill="#036"/><path d="m128.33 16.297c-0.60508 0.01015-1.2141 0.03186-1.8262 0.06445-39.169 2.0862-77.595 49.615-85.826 106.16-8.2313 56.541 16.85 100.69 56.02 98.6 39.169-2.0875 77.596-49.615 85.826-106.16 8.1039-55.659-16.073-99.304-54.193-98.664zm-0.71289 3.4668c4.3352-0.06951 8.4792 0.4793 12.408 1.5762l0.0215-0.07227 3.4004 0.67773-0.14453 0.45508c9.9535 3.6811 18.355 11.063 24.684 21.164l0.32422-0.41992 2.2676 3.1582-0.57031 0.7168c5.7946 10.566 9.5029 23.678 10.617 38.398l0.58008-0.26562 0.5332 4.7793-0.83789 0.36133c0.28451 7.91-0.15626 16.23-1.4082 24.83-1.0364 7.1193-2.5841 14.098-4.5566 20.867l0.5332 0.16211-1.3457 5.123-0.75-0.25195c-5.0275 15.302-12.263 29.351-20.951 41.123l0.21484 0.35157-2.8633 4.0938-0.33008-0.56641c-9.0969 11.369-19.575 20.296-30.629 25.74l0.002 0.0273-3.6152 1.9668-0.0156-0.33985c-5.8545 2.4494-11.843 3.914-17.85 4.2344-5.0075 0.2666-9.7713-0.27979-14.254-1.543l-0.02539 0.082-3.3984-0.68164 0.15039-0.46875c-9.8699-3.6767-18.214-10.992-24.514-20.994l-0.36719 0.47656-2.2734-3.1504 0.61523-0.77734c-5.82-10.53-9.542-23.61-10.682-38.3l-0.64648 0.29687-0.53906-4.7754 0.90234-0.39062c-0.30193-7.9806 0.12991-16.378 1.3945-25.064 1.0219-7.021 2.5394-13.907 4.4727-20.588l-0.57617-0.17382 1.3379-5.125 0.79297 0.26367c4.996-15.312 12.208-29.37 20.87-41.165l-0.23438-0.37891 2.8574-4.0996 0.3457 0.58789c9.167-11.512 19.748-20.541 30.91-26.017v-0.01367l3.6172-1.959 0.0156 0.32422c5.8212-2.4225 11.773-3.8714 17.744-4.1895 0.58582-0.03121 1.1689-0.05126 1.748-0.06055zm-19.492 4.25c-1.217 0.50648-2.4283 1.0578-3.6328 1.6484l1.1465 18.742s11.741-6.4049 24.596-4.3574l3.1894-13.453s-6.0441-1.4179-15.445 0.47461l-0.31641 4.5547s5.8706-1.3135 11.234-0.85352l-0.91 4.375s-7.9107-0.95102-19.189 3.3965l-0.6836-14.527zm-34.55 27.666c-1.0082 1.2661-1.9959 2.566-2.9688 3.8906l7.7871 12.631s9.2624-13.345 22.732-21.268l-1.784-12.274s-6.4985 3.3841-15.104 11.682l1.3574 3.5977s5.3245-5.2788 10.801-8.875l0.71875 3.8906s-8.1758 5.1023-17.738 16.59l-5.801-9.866zm-23.84 45.05c-0.54339 1.6646-1.0649 3.3423-1.5547 5.0352l12.107 3.6348s4.3166-16.64 14.775-32.322l-6.2402-7.8027s-5.2077 7.2414-10.709 19.66l2.6562 1.6777s3.355-7.7916 7.4688-14.445l2.1289 2.3633s-6.2405 9.735-11.529 25.219l-9.1035-3.0195zm-7.4219 50.688c0.06212 1.642 0.15865 3.2642 0.2832 4.8691l13.311-6.1113s-1.7874-15.487 2.8613-34.732l-9.0273-1.2461s-2.5171 9.1602-3.4434 22.379l3.2422-0.68945s0.48102-8.2184 2.1348-16.148l2.9707 0.20117s-2.6369 11.764-2.2344 27.098l-10.098 4.3809zm10.953 43.18c0.65111 1.1811 1.3227 2.3355 2.0254 3.4512l11.125-14.436s-7.4134-10.186-9.8184-27.848l-9.3926 5.6445s0.84078 8.6294 4.7383 19.109l2.9609-2.8711s-2.5183-6.4502-3.7695-13.535l3.0176-2.0117s1.6725 10.647 7.6562 21.729l-8.543 10.768zm26.539 24.445c1.0733 0.39981 2.1647 0.75592 3.2734 1.0684l5.9277-19.342s-11.053-2.1617-19.869-13.512l-7.248 11.025s3.9748 5.7859 11.652 10.725l1.8887-4.2871s-4.8416-2.9519-8.6641-7.2969l2.2559-3.6856s5.535 6.6755 15.5 10.543l-4.7168 14.762zm35.377-1.623c1.2158-0.50867 2.4257-1.0617 3.6289-1.6543l-1.1777-18.715s-11.735 6.4412-24.602 4.4375l-3.168 13.457s6.0462 1.3989 15.451-0.52734l0.31055-4.5527s-5.8715 1.3313-11.24 0.89258l0.89062-4.377s7.9178 0.92211 19.195-3.4629l0.71094 14.502zm34.258-27.395c1.0104-1.2627 2.0033-2.5575 2.9785-3.8789l-7.7812-12.693s-9.2784 13.324-22.756 21.205l1.7637 12.285s6.5027-3.3649 15.115-11.639l-1.3516-3.6016s-5.3311 5.265-10.809 8.8438l-0.71289-3.8965s8.1809-5.0766 17.756-16.539l5.7969 9.9141zm23.93-45c0.54663-1.6638 1.0694-3.341 1.5625-5.0332l-12.137-3.6934s-4.3416 16.634-14.82 32.289l6.2226 7.8281s5.2163-7.2253 10.736-19.633l-2.6543-1.6894s-3.3626 7.7859-7.4863 14.43l-2.123-2.3711s6.252-9.7221 11.564-25.193l9.1348 3.0664zm7.5273-50.73c-0.0591-1.6438-0.15376-3.2681-0.27539-4.875l-13.38 6.099s1.7595 15.501-2.918 34.742l9.0176 1.2773s2.5317-9.1576 3.4805-22.379l-3.2422 0.67773s-0.49516 8.2236-2.1602 16.152l-2.9688-0.2129s2.653-11.762 2.2793-27.107l10.164-4.3711zm-10.9-43.27c-0.64863-1.1828-1.3213-2.3375-2.0215-3.4551l-11.184 14.459s7.3887 10.217 9.7637 27.895l9.3984-5.6152s-0.82758-8.636-4.7051-19.135l-2.9648 2.8633s2.5047 6.4622 3.7422 13.555l-3.0156 2.002s-1.6552-10.658-7.6152-21.768l8.6016-10.801zm-26.705-24.619c-1.0749-0.39753-2.167-0.75056-3.2774-1.0605l-5.9219 19.354s11.055 2.1495 19.879 13.488l7.2461-11.031s-3.9821-5.7809-11.662-10.711l-1.8887 4.2871s4.8462 2.9471 8.6699 7.2871l-2.2539 3.6895s-5.5428-6.6723-15.508-10.527l4.7168-14.775z" transform="matrix(.8 0 0 -.8 0 191)" fill="#fc0"/><path d="m175.44 53.115c-2.74 13.322-2.531 16.843-1.359 24.98 0.797 5.525 2.882 19.485 2.882 19.485 1.036 6.805 8.354 15.189 8.354 15.189s-4.693 9.852-4.012 14.978c0 0-0.004-0.046-0.015-0.132-0.002 0.005-0.004 0.008-0.008 0.013 0-0.005 0-0.009-0.002-0.014 0.002 0.005 0.002 0.009 0.002 0.014 0.017 0.096 0.037 0.187 0.053 0.285 0.378 2.558 0.757 5.115 1.136 7.674 0.836 5.757 0.309 10.277-1.57 13.429-1.611 2.7-3.875 4.027-6.852 4.474-2.976 0.446-8.255 0.016-12.718-0.805l-156.26-33.09c5.459-4.627 6.086-11.809 5.266-17.478l-4.869-33.792c-0.756-4.909 0.021-8.813 2.309-11.596 1.944-2.363 5.954-3.975 8.977-4.139 5.437-0.293 158.69 0.522 158.69 0.522" fill="#036"/><path d="m207.5 55.73c-2.9534-0.0091-6.2795 0.36664-9.7422 0.96289-5.7 0.98-13.515 2.3849-18.73 9.2012-2.8788 3.7662-4.6951 8.5275-5.5488 14.594-1.5238 10.574-9.081 63.054-9.1035 63.441-0.009 0-0.0226-0.00055-0.0351 0.002-0.89125 6.075-0.41438 10.595 1.4531 13.869 3.3788 5.925 10.262 5.5415 15.914 5.4277 5.6488-0.1125 28.256-0.50196 28.256-0.50196s-3.0216-7.9536-1.9941-15.09c1.5512-10.848 3.1024-21.692 4.6524-32.541 1.0188-5.475 5.5239-11.952 5.6602-12.18-0.18 0.0175-28.064 2.5781-28.064 2.5781s-2.4411 16.955-3.4023 23.639c0 0 2.5331-3.0684 5.4531-3.9297-0.3375 2.3413-2.505 17.415-2.5312 17.865h-0.0391c-0.585 3.4025-2.7261 5.9473-5.2148 5.9473-3.1362 0-3.3374-3.75-3.0898-5.4687 1.5888-11.032 7.9432-55.161 9.5332-66.193 0.24375-1.6925 1.1961-5.6888 4.7774-6.2363 2.5225-0.3875 4.0146 1.6865 3.6309 5.0215-0.66875 4.6725-2.4668 17.221-2.4668 17.221s22.895-1.9676 23.074-1.9863c-0.0738-0.20625-2.7113-5.107-2.2676-11.363 0.47125-3.18 1.5986-10.9 1.5898-10.887 0.475-4.0762 0.0812-7.246-1.2051-9.3848-1.7508-2.9094-5.6363-3.9927-10.559-4.0078zm-52.988 9.6133c-2.8424 0.0201-6.2998 0.5732-10.324 1.4258-5.305 1.1238-12.579 2.7225-17.633 9.1562-2.7538 3.5062-4.5266 8.0195-5.2754 13.457l-8.1094 57.592c-0.78251 5.4388-0.24008 9.659 1.6074 12.584 3.3912 5.3662 10.467 5.1902 15.631 5.0664 8.955-0.2175 15.288-1.2829 19.207-5.9941 2.05-2.4662 3.3493-5.8322 3.9668-10.273l1.4766-10.783c0.65-4.8088 2.6994-9.4998 6.0156-13.309-3.4988 0.31751-20.998 1.9727-20.998 1.9727s-2.7859 19.676-2.7734 19.607c-0.5975 3.4962-2.0413 5.4375-4.2988 5.4375-3.3325 0-3.2923-3.3826-3.0723-4.9238 1.42-10.1 7.108-50.497 8.5293-60.596 0.54-3.355 3.0506-5.6882 4.5918-5.8457 2.3262-0.23875 3.2705 1.1108 2.8867 4.582 0.01-0.0675-2.2578 16.141-2.2578 16.141s17.617-2.49 21.137-2.9687c-1.69-1.575-3.1677-6.8991-2.6777-10.383-0.002 0.01 1.334-9.1875 1.334-9.1875 0.6325-4.445 0.255-7.6235-1.1562-9.6973-1.5159-2.2303-4.1521-3.0864-7.8066-3.0605zm-34.529 7.248c0.002-0.0025-26.357 5.9727-26.357 5.9727 3.5888 3.4975 3.3891 7.6677 2.8203 11.615l-3.541 26.761-3.888-37.428s-17.806 3.7305-21.363 4.4492c4.2612 3.1062 3.4555 9.0962 2.793 12.812-1.3538 9.5025-6.7759 47.507-8.1309 57.01-1.0512 7.6488-7.4677 12.722-7.5215 12.764-0.0025 0 26.773-0.63477 26.773-0.63477-2.3638-3.0025-3.8848-8.203-3.1836-12.918-0.005 0.03 3.8359-28.367 3.8359-28.367l3.5762 41.18s16.786-0.43594 20.146-0.52344c-0.001-0.002-3.3379-5.3303-1.9316-15.102 1.475-10.469 7.372-52.352 8.8457-62.822 0.93125-7.05 1.9284-8.6776 7.1309-14.768zm-54.47 11.8c-3.7512 0.7425-22.516 4.2988-22.516 4.2988s-8.412 58.225-9.1758 63.518c-0.5 2.7325-1.898 4.293-4.1543 4.293-2.98 0-3.3767-2.6885-3.1992-3.916l9.0508-62.547s-14.132 2.9545-17.607 3.5195c1.7525 2.8012 2.3851 8.3273 1.6426 13.434-0.005 0.0337-6.6504 46.049-6.6504 46.049-0.70875 4.5925-0.13359 7.938 1.7539 10.248 3.35 4.0962 6.9548 3.9607 14.152 3.8144 6.7912-0.13625 11.73-0.61086 15.229-2.8496 3.5-2.2388 5.5655-6.2573 6.6055-13.447 0.0063-0.0412 7.2695-50.689 7.2695-50.689 0.495-3.5237 1.9134-11.602 7.5996-15.725z" transform="matrix(.8 0 0 -.8 0 191)" fill="#98a4ae"/><path d="m205.75 59.449c-2.7112 0.02262-5.6524 0.35094-8.502 0.82812-5.2238 0.87375-12.457 2.1332-16.783 7.7832-2.2838 2.9825-3.743 6.9103-4.4668 12.039l-9.1738 63.705c-0.755 5.1288-0.39797 8.8684 1.082 11.461 2.805 4.915 9.0709 4.7538 14.287 4.625 5.215-0.13249 23.857-0.5664 23.857-0.5664-0.00001 0-1.654-3.9309-0.83399-9.6172 1.8362-12.761 4.9238-34.41 4.9238-34.412 0.45125-3.145 1.385-5.8948 2.7812-8.2285-6.2425 0.57375-20.723 1.7695-20.723 1.7695s-1.3709 9.5239-2.0547 14.285c2.075-1.8125 5.1699-1.9434 5.1699-1.9434s-3.1448 21.846-3.1524 21.885c-0.93 5.4125-3.5157 9.4994-8.1894 9.5469-1.88 0.0162-3.3405-0.73555-4.2305-2.3106-0.91375-1.6138-1.2028-3.9657-0.82031-6.627 1.5825-10.991 7.9111-54.956 9.4961-65.947 0.65625-4.5612 3.3266-9.4878 7.8066-10.195 3.8838-0.615 6.2525 2.83 5.625 8.25l-2.0137 14.062s11.197-1.101 15.801-1.6348c-0.75375-2.1125-1.0937-4.8528-0.63867-8.0078 0 0 2.6041-15.312 0.91406-17.596-1.7609-2.3812-5.6434-3.192-10.162-3.1543zm-52.576 9.3242c-2.6225 0.06324-5.8116 0.56969-9.4473 1.3184-5.1338 1.0575-11.527 2.419-15.711 7.7402-2.2075 2.8075-3.5899 6.4201-4.2324 11.08l-8.1524 57.9c-0.67 4.6625-0.27351 8.0508 1.209 10.395 2.8088 4.4412 9.038 4.2461 14.043 4.0898 8.105-0.24751 14.154-1.1883 17.346-5.0195 1.4938-1.8038 2.4194-4.28 2.9082-7.7812 0 0 1.4695-10.737 1.4707-10.744 0.5375-3.8138 1.2396-7.1541 2.9121-9.5703-4.4825 0.39-13.447 1.1875-13.447 1.1875s-2.3263 16.413-2.3301 16.441c-0.91625 5.3662-3.6038 8.8047-7.2051 8.8047-3.6988 0-5.0566-2.7723-5.0566-8.1035 1.4162-10.049 7.0759-50.247 8.4922-60.297 0.58875-4.17 3.1522-8.768 7.5547-9.623 3.6738-0.715 5.5162 2.0316 4.9199 7.4004-0.6 4.3062-1.8066 12.918-1.8066 12.918s9.0425-1.3423 13.562-1.9961c-0.7675-1.915-0.95352-4.3323-0.54102-7.2461l1.3281-9.1562c0.4975-3.4988 0.25336-5.8416-0.77539-7.3516-1.2354-1.8155-3.6693-2.468-7.041-2.3867zm-39.096 8.1387c-5.2012 1.1675-10.394 2.3173-15.578 3.4473 1.3962 1.8188 1.1582 4.331 0.68945 7.6035-0.75125 5.32-5.3906 36.145-5.3906 36.145l-2.3008 0.0488s-4.1906-35.361-4.8594-41.281c-4.6025 0.95-9.2019 1.8847-13.797 2.8047 1.46 3.02 0.63406 6.9473 0.07031 10.777 0 0-8.2642 58.005-8.2617 57.992-0.665 4.9562-2.1045 6.8364-4.0645 9.1289 5.5125-0.16125 11.025-0.33124 16.539-0.5-1.1362-2.79-1.8882-5.2652-1.3145-9.0664 0.76625-5.4088 5.1758-34.75 5.1758-34.75l2.8125-0.15625 4.3535 43.625s9.0745-0.29797 13.613-0.44922c-0.64875-2.18-1.0852-5.858-0.20899-11.949l9.0488-64.26c0.7425-4.8738 1.6002-7.0889 3.4727-9.1602zm-54.627 11.367c-4.7812 0.8975-9.562 1.7776-14.346 2.6426-0.3275 2.2662-1.0429 7.2202-1.9316 13.379-0.89 6.1588-6.9018 47.796-6.9043 47.809-0.77875 4.2875-3.3842 7.0449-6.9805 7.0449-4.7512 0-5.5488-4.5073-5.2676-6.4473 0.71875-4.9688 8.627-59.609 8.627-59.609s-6.331 1.5855-11.104 2.3555c1.505 3.3438 1.0186 7.8042 0.49609 11.262 0 0-6.6777 46.212-6.6777 46.215-0.605 3.9188-0.17867 6.6879 1.2988 8.4941 2.7425 3.3525 5.8584 3.1938 12.537 3.0176 14.39-0.38 17.412-2.542 19.012-13.582 1.1875-8.2713 7.2266-50.328 7.2266-50.328 0.4525-3.2225 1.1562-8.1645 4.0137-12.252z" transform="matrix(.8 0 0 -.8 0 191)" fill="#fff"/></g></g></svg>
